# xmcd
#
# Track frame offsets: 
#        150
#        17717
#        35150
#        50909
#        70041
#        85359
#        103190
#        121515
#        135614
#        153932
#        171806
#        188324
#        202510
#        217216
#        237709
#        254059
#        267859
#        281396
#
# Disc length: 3998 seconds
#
# Revision: 3
# Processed by: cddbd v1.5.1PL0 Copyright (c) Steve Scherf et al.
# Submitted via: ExactAudioCopy v0.95a5
#
DISCID=030f9c12
DTITLE=Westlife - Coast To Coast
DYEAR=1900
DGENRE=
TTITLE0=My Love
TTITLE1=What Makes A Man
TTITLE2=I Lay My Love On You
TTITLE3=I Have A Dream (remix)
TTITLE4=Against All Odds (featuring MARIAH CAREY)
TTITLE5=When You're Looking Like That
TTITLE6=Close
TTITLE7=Somebody Needs You
TTITLE8=Angel's Wings
TTITLE9=Soledad
TTITLE10=Puzzle Of My Heart
TTITLE11=Dreams Come True
TTITLE12=No Place That Far
TTITLE13=Close Your Eyes
TTITLE14=You Make Me Feel
TTITLE15=Loneliness Knows Me By Name
TTITLE16=Fragile Heart
TTITLE17=Every Little Thing You Do
EXTD=
EXTT0=
EXTT1=
EXTT2=
EXTT3=
EXTT4=
EXTT5=
EXTT6=
EXTT7=
EXTT8=
EXTT9=
EXTT10=
EXTT11=
EXTT12=
EXTT13=
EXTT14=
EXTT15=
EXTT16=
EXTT17=
PLAYORDER=
